<?xml version="1.0" encoding="utf-8"?>
<!-- Generator: Adobe Illustrator 24.0.1, SVG Export Plug-In . SVG Version: 6.00 Build 0)  -->
<svg version="1.1" id="Capa_1" xmlns="http://www.w3.org/2000/svg" xmlns:xlink="http://www.w3.org/1999/xlink" x="0px" y="0px"
	 viewBox="0 0 192 127.92" style="enable-background:new 0 0 192 127.92;" xml:space="preserve">
<style type="text/css">
	.st0{fill:#48A867;}
	.st1{fill:#314722;}
	.st2{fill:#3F6141;}
	.st3{fill:#7FC986;}
</style>
<g>
	<path class="st0" d="M0,59.03C0,39.36,0,19.68,0,0c64,0,128,0,192,0c0,23.29,0,46.56,0,69.83c-4.02-0.01-8.05,0-12.07-0.05
		c-0.97-0.01-1.25,0.38-1.2,1.28c0.06,1.07-0.08,2.16,0.03,3.23c0.13,1.27-0.36,1.68-1.54,1.45c0.24-1.14-0.3-1.53-1.37-1.46
		c-0.67,0.04-1.35,0.01-2.03,0.01c-0.78-0.01-1.63,0.19-1.79-1.01c-0.06-0.42-0.56-0.38-0.91-0.38c-2.39-0.01-4.78,0-7.17-0.01
		c-0.75-0.01-1.09,0.29-1.08,1.06c0.03,3.26,0.04,6.53,0.06,9.79c-0.68-0.01-1.37-0.02-2.05-0.04c0.01-4.88,0.02-9.75,0.04-14.63
		c0-0.81-0.39-0.97-1.07-0.75c-0.94,0.31-1.87,0.71-2.83,0.92c-2.03,0.45-4.01,1.08-6.01,1.6c-1.26,0.33-1.58,1.04-1.57,2.26
		c0.04,7.99,0.02,15.99,0.04,23.98c0,0.55,0.09,1.11,0.14,1.66c-0.6-0.43-0.42-1.08-0.42-1.66c-0.01-4.72-0.01-9.43-0.01-14.15
		c0-0.35,0.14-0.92-0.14-1.02c-1.13-0.39-0.64-1.29-0.75-2c-0.16-1.06,0.5-2.33-0.82-3.11c-0.12-0.07-0.07-0.45-0.07-0.69
		c-0.01-0.52-0.02-1.04,0-1.56c0.02-0.57-0.17-1.01-0.81-0.89c-0.94,0.18-1.51-0.57-2.2-0.9c-0.33-0.15-1.08-0.61-1.09-1.35
		c-0.02-2.63-0.84-5.17-0.9-7.8c-0.04-1.56-0.1-3.12-0.17-4.67c-0.01-0.27,0.12-0.63-0.46-0.9c0.24,4.29-0.5,8.4-0.92,12.53
		c-0.14,1.34-1.41,2.99-2.74,3c-1.37,0.01-1.46,0.67-1.43,1.71c0.02,0.57,0.32,1.4-0.24,1.68c-0.82,0.4-0.59,1-0.67,1.6
		c-0.13,1.04,0.35,2.14-0.28,3.13c0.04-1.84,0.04-1.84-1.34-1.9c-0.02-4.6-0.06-9.2-0.05-13.79c0.01-2.98-0.56-2.82,2.81-2.83
		c3.27-0.01,3.26-0.01,3.26-3.33c0-1.07-0.35-2.34,1.39-2.45c0.14-0.01,0.26-0.28,0.39-0.43c0.51,0.7,3.53,1.11,4.17,0.58
		c0.29-0.24,0.25-0.57,0.26-0.88c0.01-0.88,0.01-1.76,0-2.64c-0.02-2.32-0.13-2.18,2.11-2.19c0.46,0,0.99,0.11,1.22-0.5
		c0.26-0.68-0.5-3.12-1.08-3.51c-1.23-0.83-2.44-1.68-3.02-3.15c-0.08-0.2-0.3-0.35-0.48-0.51c-0.93-0.85-1.43-2.25-2.98-2.31
		c-0.08,0-0.15-0.17-0.23-0.26c-1.61-1.82-3.15-3.79-5.58-4.54c-1.31-0.4-1.98-1.61-3.22-2.11c-1.76-0.72-3.69-1.13-5.23-2.25
		c-1.43-1.05-3.05-1.66-4.57-2.49c-0.52-0.28-0.93-0.75-1.59-0.72c-1.18,0.07-2.34,0.05-3.07-1.14c-0.09-0.14-0.35-0.25-0.53-0.24
		c-2.2,0.08-4.23-1.17-6.48-0.8c-0.78,0.13-1.6,0.02-2.4,0.02c-0.4,0-0.85,0.02-1.12-0.31c-0.93-1.16-2.31-1.3-3.57-1.32
		c-5.72-0.09-11.44-0.07-17.16-0.01c-1.09,0.01-2.28,0.19-3.12,0.94c-0.57,0.5-1.09,0.69-1.8,0.72c-2.71,0.14-5.42,0.32-8.12,0.48
		c-0.55,0.03-1.04,0.21-1.29,0.73c-0.4,0.82-1.08,0.96-1.9,0.95c-0.67-0.01-1.38-0.16-1.97,0.3c-1.53,1.2-3.48,1.64-5.05,2.85
		c-1.57,1.21-3.59,1.66-5.45,2.32c-0.85,0.3-1.01,1.28-1.82,1.44c-2.37,0.46-3.63,2.41-5.33,3.8c-0.91,0.74-1.64,1.84-2.95,2.02
		c-0.45,0.06-0.63,0.4-0.85,0.75c-0.85,1.33-1.25,2.92-2.88,3.75c-1.19,0.6-2.31,1.49-2.47,3.11c-0.16,1.62-1,2.95-2.13,4.13
		c-0.55,0.57,0.15,1.92,0.97,1.95c1.36,0.04,2.71-0.02,4.07-0.09c1.74-0.09,1.75,0.01,1.76-1.7c0-0.2,0.01-0.4,0-0.6
		c-0.04-0.85,0.32-1.25,1.2-1.22c1.28,0.04,2.56,0.05,3.84,0.01c0.92-0.03,1.31,0.31,1.26,1.26c-0.06,1.2,0.01,2.4-0.03,3.6
		c-0.03,0.8,0.25,1.21,1.1,1.14c0.36-0.03,0.72,0.01,1.08,0c0.58-0.01,0.98,0.25,0.88,0.85c-0.21,1.25,0.53,1.9,1.43,2.5
		c0.8,0.53,1.54,1.14,2.33,1.69c0.43,0.3,0.65,0.67,0.62,1.21c-0.04,0.76-0.04,1.52-0.06,2.28C59.91,68,61,68.7,61.41,69.57
		c-0.62-0.02-0.52,0.95-1.29,0.85c-0.9-0.11-1.83-0.03-2.75-0.03c-0.51,0-0.78-0.21-0.87-0.77c-0.31-2.05-0.32-2.04-2.45-2.04
		c-0.48,0-0.96,0.04-1.44-0.01c-1.04-0.09-1.47,0.36-1.38,1.4c0.07,0.76,0.03,1.45-1.04,1.49c-0.57,0.02-0.61,0.55-0.61,1.01
		c0.01,3.44,0.03,6.88,0.04,10.31c-0.19-0.01-0.39-0.01-0.58-0.02c0.02-4.96,0.04-9.92,0.06-14.87c0-0.23-0.02-0.54-0.16-0.68
		c-1.15-1.15-1.98-2.58-4.12-2.36c-1.77,0.18-3.31,0.12-4.39,1.93c-0.39,0.65-0.67,1.18-0.67,1.91c0.01,2.52-0.04,5.04,0.03,7.56
		c0.03,1.04-0.43,1.34-1.34,1.34c-0.88,0-1.75,0.06-2.63,0.05c-0.84-0.01-1.12,0.41-1.1,1.2c0.03,1.32,0.03,2.64,0.04,3.96
		c-0.12,0-0.25-0.01-0.37-0.01c0.02-2.52,0.05-5.03,0.05-7.55c-0.01-3.23,0.28-2.86-2.77-2.88c-0.08,0-0.16-0.01-0.24,0
		c-0.9,0.07-1.34-0.28-1.28-1.24c0.05-0.8,0.02-1.6,0.01-2.4c-0.02-2.64,0.23-2.62-2.39-2.53c-0.67,0.02-1.01-0.18-1.05-0.94
		c-0.09-1.73-0.12-1.73-1.85-1.74c-0.28,0-0.56,0.01-0.84,0c-0.76-0.04-1.14,0.32-1.07,1.07c0.16,1.7-0.09,1.59-1.81,1.68
		c-1.77,0.09-1.78,0.01-1.78,1.85c0,11.02-0.01,22.05-0.01,33.07c-0.16-0.01-0.33-0.01-0.49-0.02c-0.01-9.03-0.02-18.06-0.02-27.09
		c0-1.61-0.06-1.7-1.65-1.72c-2.9-0.04-2.9-0.04-2.94-2.87c0-0.16-0.01-0.32-0.01-0.48c0.03-0.81-0.39-1.15-1.18-1.14
		c-0.96,0.02-1.92-0.04-2.88,0.01C9.34,66.91,8.83,66.64,9,65.73c0.44-2.41-0.55-4.07-2.6-5.22c-0.17-0.1-0.34-0.23-0.46-0.38
		c-1.03-1.3-2.44-1.37-3.91-1.24C1.35,58.95,0.67,58.98,0,59.03z M37.34,56.2c0,6.43,0,12.86,0,19.29c0.12,0,0.23,0,0.35,0
		C37.63,69.04,37.81,62.6,37.34,56.2z"/>
	<path class="st1" d="M34.38,81.78c0.12,0,0.25,0.01,0.37,0.01c4.76,0.1,9.53,0.15,14.29-0.02c0.19,0.01,0.39,0.01,0.58,0.02
		c0.24,0.02,0.48,0.06,0.71,0.07c1.76,0.06,1.76,0.06,1.76,1.82c0,2.12,0.03,4.24-0.01,6.35c-0.02,0.88,0.32,1.22,1.2,1.18
		c1.28-0.05,2.56-0.01,3.83-0.01c1.68,0,1.68,0,1.68,1.64c0,4.24-0.01,8.47,0,12.71c0,0.5-0.14,1.3,0.48,1.32
		c1.73,0.07,1.4,1.25,1.41,2.28c0.01,1.6,0,3.2,0.01,4.79c0,0.55-0.1,1.21,0.77,1.19c0.87-0.02,0.69-0.71,0.72-1.24
		c0.02-0.36,0.01-0.72,0.01-1.08c0-11.43,0-22.85,0.01-34.28c0-0.72,0.08-1.43,0.14-2.15c0.02-0.28,0.05-0.6,0.33-0.73
		c0.64-0.29,0.69-0.83,0.66-1.4c-0.06-0.88,0.41-1.08,1.18-1.07c0.87,0,1.76,0.16,2.6-0.21c0.23,0.04,0.47,0.07,0.7,0.11
		c0.76,0.03,1.51,0.12,2.27,0.09c0.85-0.03,1.29,0.25,1.22,1.16c-0.03,0.35-0.09,0.86,0.25,0.99c1.14,0.45,0.87,1.39,0.88,2.22
		c0.01,12.03,0,24.06,0.02,36.09c0,0.47-0.24,1.05,0.72,1.6c0.08-9.8-0.02-19.39,0.06-29.21c2.04,0.73,3.57,1.76,5.19,2.58
		c2.17,1.09,4.2,2.47,6.49,3.32c0.44,0.35,0.93,0.61,1.48,0.73c0.13,0.51,0.61,0.6,0.98,0.8c1.37,0.74,2.73,1.5,4.13,2.19
		c0.85,0.42,1.19,1.01,1.18,1.98c-0.04,5.31-0.03,10.63-0.01,15.94c0,0.45-0.17,0.95,0.28,1.42c0.48-0.53,0.35-1.14,0.35-1.7
		c0.01-7.99,0-15.98,0-23.98c0-2.48,0.01-4.95-0.01-7.43c-0.01-0.73,0.11-1.26,1.01-1.26c0.67,0,0.75-0.51,0.71-1.01
		c-0.06-0.88,0.31-1.25,1.19-1.19c0.54,0.04,1.1-0.01,1.15-0.73c0.05-0.83,0.56-0.94,1.23-0.93c1.64,0.01,3.28-0.01,4.91-0.02
		c0.22,0.02,0.44,0.06,0.62-0.12c0.29,0.02,0.59,0.03,0.88,0.05c1.47,0.21,2.95,0.07,4.43,0.1c1.65,0.03,1.65,0.01,1.65,1.68
		c0,11.59-0.01,23.18,0.03,34.78c0,0.64-0.53,1.83,0.62,1.82c1.01,0,0.56-1.15,0.56-1.77c0.04-8.79,0.02-17.59,0.03-26.38
		c0-2.3,0.01-2.3,2.22-2.49c0.11,0,0.23,0,0.34-0.01c2,0.02,4,0.12,5.99,0.05c1.21-0.04,1.6,0.35,1.58,1.57
		c-0.06,2.63,0,2.63,2.68,2.49c0.16-0.01,0.32-0.02,0.48-0.03c0.5-0.06,0.85-0.29,0.83-0.83c-0.03-0.94,0.57-0.99,1.27-0.98
		c1.48,0.01,2.96,0,4.44,0c1.78,0,1.79,0.01,1.79,1.79c0,8.36,0,16.72,0.01,25.08c0,0.53-0.2,1.13,0.37,1.58
		c0.86-0.25,0.55-0.97,0.55-1.49c0.02-10.04,0.01-20.08,0.02-30.12c0-0.65-0.21-1.4,0.58-1.81c0.63-0.99,0.15-2.09,0.28-3.13
		c0.08-0.6-0.15-1.2,0.67-1.6c0.57-0.28,0.26-1.11,0.24-1.68c-0.03-1.04,0.06-1.69,1.43-1.71c1.33-0.01,2.6-1.65,2.74-3
		c0.42-4.14,1.16-8.24,0.92-12.53c0.58,0.27,0.44,0.62,0.46,0.9c0.07,1.56,0.14,3.11,0.17,4.67c0.06,2.63,0.88,5.17,0.9,7.8
		c0.01,0.74,0.76,1.2,1.09,1.35c0.69,0.32,1.26,1.08,2.2,0.9c0.63-0.12,0.82,0.32,0.81,0.89c-0.01,0.52-0.01,1.04,0,1.56
		c0,0.24-0.04,0.62,0.07,0.69c1.32,0.77,0.66,2.05,0.82,3.11c0.11,0.71-0.38,1.61,0.75,2c0.28,0.1,0.13,0.67,0.14,1.02
		c0,4.72,0,9.43,0.01,14.15c0,0.57-0.17,1.22,0.42,1.66c0.24,0.29,0.6,0.38,0.94,0.5c1.23,0.45,1.37,0.35,1.39-0.94
		c0.01-0.92,0.01-1.83,0.01-2.75c0-0.51,0.08-1,0.74-1c1.03,0.01,1.13-0.67,1.12-1.45c-0.01-1.35,0-2.71-0.06-4.06
		c-0.03-0.58,0.06-0.88,0.72-0.95c1.8-0.2,1.8-0.22,1.79-2c0-0.36,0.02-0.72,0-1.08c-0.07-0.95,0.39-1.26,1.29-1.25
		c1.11,0.02,2.23-0.05,3.34-0.08c0.68,0.01,1.37,0.02,2.05,0.04c2.82,0.2,2.82,0.2,2.89,3.06c0,0.04,0,0.08,0,0.12
		c-0.09,0.87,0.3,1.28,1.18,1.19c1.03-0.1,1.32,0.45,1.29,1.38c-0.04,1.32-0.01,2.64-0.01,3.96c0,0.49-0.01,1.08,0.66,1.06
		c1.19-0.04,1.23,0.67,1.23,1.55c-0.02,5.84-0.01,11.68,0,17.52c0,0.44-0.11,0.92,0.19,1.39c0.41-0.45,0.26-0.9,0.26-1.31
		c0.01-6.04,0-12.08,0-18.12c0-3.36,0-6.72,0.01-10.08c0-0.56-0.06-1.12,0.76-1.25c1.69-0.28,1.69-0.31,1.69-2.01
		c0-0.28,0.03-0.56,0-0.84c-0.11-1.05,0.26-1.6,1.41-1.46c0.88,0.11,1.24-0.35,1.19-1.21c-0.02-0.36,0.04-0.73-0.01-1.08
		c-0.19-1.24,0.25-1.92,1.57-1.86c1.19,0.24,1.68-0.18,1.54-1.45c-0.11-1.06,0.02-2.15-0.03-3.23c-0.05-0.9,0.23-1.29,1.2-1.28
		c4.02,0.05,8.05,0.04,12.07,0.05c0,19.36,0,38.72,0,58.09c-64,0-128,0-192,0c0-7.36,0-14.72,0-22.08c1.94-0.86,3.59-2.2,5.37-3.33
		c0.15-0.1,0.31-0.31,0.33-0.47c0.11-1.6,1.06-3.04,0.79-4.74c-0.17-1.05,0-2.15-0.04-3.23c-0.03-0.82,0.29-1.17,1.12-1.15
		c1.2,0.03,2.4,0.05,3.6-0.01c1-0.04,1.34,0.4,1.32,1.36c-0.04,1.64,0,3.28-0.01,4.92c0,0.62,0.1,1.14,0.89,1.12
		c1.83-0.05,3.67,0.15,5.5-0.12c0.16,0.01,0.33,0.01,0.49,0.02c0.63,0.91,0.3,1.94,0.33,2.92c0.06,1.6,0.01,3.2,0.03,4.79
		c0,0.45,0.05,0.93,0.66,0.95c0.69,0.03,0.72-0.49,0.73-0.99c0.01-0.36,0-0.72,0-1.08c0-1.88,0-1.92,1.88-1.91
		c0.94,0,1.28-0.34,1.25-1.27c-0.05-1.4,0.02-2.8-0.03-4.2c-0.03-0.94,0.33-1.28,1.26-1.25c1.92,0.05,3.84-0.04,5.75,0.03
		c1.11,0.04,1.45-0.36,1.43-1.45c-0.05-4.32-0.02-8.63-0.02-12.95C32.64,81.98,32.64,81.98,34.38,81.78z"/>
	<path class="st2" d="M18.86,100.17c-1.83,0.28-3.67,0.07-5.5,0.12c-0.79,0.02-0.89-0.5-0.89-1.12c0.01-1.64-0.03-3.28,0.01-4.92
		c0.02-0.96-0.32-1.4-1.32-1.36c-1.2,0.05-2.4,0.04-3.6,0.01c-0.82-0.02-1.15,0.33-1.12,1.15c0.04,1.08-0.13,2.18,0.04,3.23
		c0.28,1.7-0.68,3.14-0.79,4.74c-0.01,0.17-0.17,0.38-0.33,0.47c-1.78,1.13-3.43,2.47-5.37,3.33c0-15.6,0-31.2,0-46.8
		c0.67-0.05,1.35-0.09,2.02-0.15c1.48-0.13,2.89-0.06,3.91,1.24c0.12,0.15,0.29,0.28,0.46,0.38c2.05,1.15,3.04,2.82,2.6,5.22
		c-0.17,0.91,0.34,1.19,1.19,1.15c0.96-0.04,1.92,0.01,2.88-0.01c0.79-0.01,1.2,0.32,1.18,1.14c0,0.16,0,0.32,0.01,0.48
		c0.04,2.83,0.04,2.83,2.94,2.87c1.59,0.02,1.65,0.11,1.65,1.72C18.84,82.11,18.85,91.14,18.86,100.17z"/>
	<path class="st3" d="M104.14,76.62c-0.18,0.18-0.4,0.15-0.62,0.12c0-1.24,0-2.48,0-3.68c-0.63-0.12-1.05-0.2-1.47-0.28
		c-0.01-3.64-0.04-7.27-0.03-10.91c0-0.75-0.12-1.23-1.03-1.2c-1.4,0.05-2.8,0.02-4.2,0.02c-0.46,0-0.84,0.16-0.77,0.68
		c0.23,1.6-0.77,1.66-1.89,1.54c-0.95-0.1-1.27,0.31-1.24,1.24c0.05,1.56,0.01,3.12,0,4.67l-0.05,0.06c-0.99,0.2-1.26-0.3-1.23-1.19
		c0.04-1.24-0.1-2.49,0.03-3.72c0.27-2.7-0.31-5.12-1.91-7.33c-0.44-0.62-0.88-0.88-1.63-0.96c-2.55-0.27-4.7,0.07-5.51,2.97
		c-0.04,0.15-0.2,0.26-0.24,0.41c-0.23,0.76-0.78,0.9-1.49,0.88c-1.92-0.03-3.84-0.01-5.76-0.01c-0.52,0-1.13-0.04-1.13,0.72
		c0.01,2.47-0.2,4.95,0.17,7.41c-0.29,0.18-0.6,0.16-0.92,0.12c-0.19-0.46-0.16-0.94-0.16-1.42c-0.01-3.59-0.02-7.19,0-10.78
		c0.01-0.88-0.22-1.4-1.21-1.28c-0.98,0.12-1.42-0.31-1.29-1.3c0.12-0.98-0.3-1.42-1.3-1.33c-0.92,0.09-1.44-0.38-1.28-1.26
		c0.21-1.19-0.42-1.3-1.29-1.22c-0.82,0.07-1.22-0.26-1.12-1.1c0.11-1-0.35-1.38-1.32-1.29c-0.27,0.03-0.57-0.01-0.83-0.1
		c-0.96-0.31-1.32,0.05-1.32,1.02c0.03,6.23,0.03,12.46,0.04,18.69c-0.18,0.03-0.35,0.06-0.53,0.1c-0.05-0.02-0.1-0.02-0.14,0.01
		c-0.25-0.04-0.5-0.08-0.74-0.11c0.02-0.76,0.02-1.52,0.06-2.28c0.03-0.54-0.19-0.91-0.62-1.21c-0.79-0.55-1.53-1.16-2.33-1.69
		c-0.91-0.6-1.64-1.25-1.43-2.5c0.1-0.6-0.3-0.86-0.88-0.85c-0.36,0-0.72-0.04-1.08,0c-0.85,0.08-1.13-0.33-1.1-1.14
		c0.04-1.2-0.03-2.4,0.03-3.6c0.05-0.95-0.35-1.29-1.26-1.26c-1.28,0.04-2.56,0.04-3.84-0.01c-0.89-0.03-1.24,0.37-1.2,1.22
		c0.01,0.2,0,0.4,0,0.6c-0.02,1.71-0.02,1.61-1.76,1.7c-1.36,0.07-2.71,0.13-4.07,0.09c-0.82-0.02-1.52-1.37-0.97-1.95
		c1.14-1.18,1.97-2.51,2.13-4.13c0.16-1.62,1.28-2.5,2.47-3.11c1.63-0.83,2.03-2.42,2.88-3.75c0.22-0.35,0.4-0.69,0.85-0.75
		c1.31-0.18,2.04-1.28,2.95-2.02c1.7-1.39,2.96-3.34,5.33-3.8c0.81-0.16,0.97-1.13,1.82-1.44c1.86-0.67,3.88-1.12,5.45-2.32
		c1.57-1.21,3.51-1.65,5.05-2.85c0.59-0.46,1.31-0.31,1.97-0.3c0.82,0.02,1.5-0.13,1.9-0.95c0.25-0.52,0.74-0.7,1.29-0.73
		c2.71-0.16,5.41-0.35,8.12-0.48c0.71-0.04,1.24-0.22,1.8-0.72c0.85-0.75,2.04-0.93,3.12-0.94c5.72-0.05,11.44-0.08,17.16,0.01
		c1.26,0.02,2.64,0.16,3.57,1.32c0.27,0.34,0.72,0.31,1.12,0.31c0.8,0,1.62,0.11,2.4-0.02c2.25-0.37,4.28,0.88,6.48,0.8
		c0.18-0.01,0.44,0.1,0.53,0.24c0.74,1.18,1.89,1.2,3.07,1.14c0.67-0.04,1.07,0.43,1.59,0.72c1.52,0.83,3.14,1.44,4.57,2.49
		c1.54,1.13,3.47,1.54,5.23,2.25c1.23,0.5,1.91,1.7,3.22,2.11c2.44,0.75,3.97,2.72,5.58,4.54c0.08,0.09,0.15,0.26,0.23,0.26
		c1.55,0.06,2.05,1.46,2.98,2.31c0.17,0.16,0.4,0.31,0.48,0.51c0.58,1.46,1.78,2.32,3.02,3.15c0.58,0.39,1.34,2.83,1.08,3.51
		c-0.24,0.6-0.76,0.5-1.22,0.5c-2.24,0.01-2.13-0.13-2.11,2.19c0.01,0.88,0.01,1.76,0,2.64c0,0.31,0.03,0.64-0.26,0.88
		c-0.64,0.53-3.66,0.12-4.17-0.58c-0.13,0.15-0.25,0.42-0.39,0.43c-1.74,0.11-1.39,1.39-1.39,2.45c0,3.32,0.01,3.32-3.26,3.33
		c-3.37,0.01-2.8-0.15-2.81,2.83c-0.02,4.6,0.03,9.2,0.05,13.79c-0.29,0-0.59,0.01-0.88,0.01c-0.01-5.63-0.13-11.26,0.02-16.89
		c0.05-1.81-0.78-3.1-1.46-4.57c-0.53-1.13-1.33-1.28-2.39-1.2c-0.75,0.06-1.52,0.01-2.28,0.01c-1.21,0.01-2.64-0.36-3.01,1.38
		c-0.21,1-1.37,1.41-1.37,2.54c0.04,4.79,0.03,9.58,0.04,14.37c-0.35,0.2-0.72,0.17-1.09,0.05c0.01-3.68,0.03-7.35,0.03-11.03
		c0-3.32,0-6.64-0.02-9.95c0-0.45,0.18-1.06-0.47-1.21c-1.23-0.29-1.99-1.27-2.96-1.93c-1.2-0.82-2.37-0.86-3.65-0.1
		c-0.88,0.52-1.38,1.65-2.24,1.84c-1.2,0.27-1.09,0.93-1.08,1.72c0.01,3.56,0.01,7.11,0.02,10.67c-0.39-0.02-0.77-0.03-1.16-0.05
		c0-2.63-0.02-5.27,0-7.9c0.01-0.73-0.1-1.28-1.01-1.24c-0.71,0.03-0.8-0.51-0.93-1.03c-0.33-1.28-0.67-2.56-1.01-3.84
		c-0.57,1.28-0.9,2.55-1.2,3.82c-0.14,0.58-0.35,1.08-1.07,1.06c-0.81-0.02-0.86,0.52-0.86,1.13
		C104.13,63.84,104.13,70.23,104.14,76.62z"/>
	<path class="st2" d="M34.38,81.78c-1.74,0.19-1.74,0.19-1.74,2.01c0,4.32-0.03,8.63,0.02,12.95c0.01,1.09-0.32,1.49-1.43,1.45
		c-1.92-0.07-3.84,0.01-5.75-0.03c-0.93-0.02-1.3,0.32-1.26,1.25c0.05,1.4-0.03,2.8,0.03,4.2c0.03,0.93-0.3,1.27-1.25,1.27
		c-1.88-0.01-1.88,0.03-1.88,1.91c0,0.36,0.01,0.72,0,1.08c-0.01,0.5-0.05,1.02-0.73,0.99c-0.6-0.02-0.66-0.5-0.66-0.95
		c-0.01-1.6,0.03-3.2-0.03-4.79c-0.03-0.98,0.3-2.01-0.33-2.92c0-11.02,0.01-22.05,0.01-33.07c0-1.83,0-1.75,1.78-1.85
		c1.72-0.09,1.97,0.01,1.81-1.68c-0.07-0.75,0.31-1.11,1.07-1.07c0.28,0.01,0.56,0,0.84,0c1.73,0.01,1.77,0.01,1.85,1.74
		c0.04,0.76,0.37,0.96,1.05,0.94c2.61-0.09,2.37-0.1,2.39,2.53c0.01,0.8,0.04,1.6-0.01,2.4c-0.07,0.96,0.38,1.31,1.28,1.24
		c0.08-0.01,0.16,0,0.24,0c3.06,0.03,2.77-0.34,2.77,2.88C34.43,76.75,34.4,79.27,34.38,81.78z"/>
	<path class="st2" d="M67.12,72.97c-0.84,0.37-1.74,0.21-2.6,0.21c-0.77,0-1.24,0.2-1.18,1.07c0.04,0.57-0.01,1.12-0.66,1.4
		c-0.28,0.13-0.31,0.45-0.33,0.73c-0.06,0.72-0.14,1.43-0.14,2.15c-0.01,11.43-0.01,22.85-0.01,34.28c0,0.36,0.02,0.72-0.01,1.08
		c-0.03,0.53,0.15,1.22-0.72,1.24c-0.87,0.02-0.76-0.64-0.77-1.19c-0.01-1.6,0-3.2-0.01-4.79c-0.01-1.03,0.32-2.21-1.41-2.28
		c-0.62-0.03-0.48-0.83-0.48-1.32c-0.01-4.24,0-8.47,0-12.71c0-1.64-0.01-1.64-1.68-1.64c-1.28,0-2.56-0.04-3.83,0.01
		c-0.88,0.03-1.21-0.3-1.2-1.18c0.04-2.12,0.01-4.23,0.01-6.35c0-1.75,0-1.75-1.76-1.82c-0.24-0.01-0.48-0.05-0.71-0.07
		c-0.01-3.44-0.03-6.88-0.04-10.31c0-0.45,0.05-0.98,0.61-1.01c1.06-0.05,1.1-0.73,1.04-1.49c-0.09-1.03,0.34-1.49,1.38-1.4
		c0.48,0.04,0.96,0.01,1.44,0.01c2.13,0,2.14,0,2.45,2.04c0.08,0.55,0.35,0.77,0.87,0.77c0.92,0,1.85-0.09,2.75,0.03
		c0.77,0.1,0.67-0.87,1.29-0.85c0,0,0.04,0.04,0.04,0.04c0.98,0.92,2.03,0.81,3.12,0.22c0,0-0.03,0.01-0.03,0.01
		c0.71-0.22,0.99,0.69,1.72,0.59c0.87-0.12,1.06,0.47,0.95,1.23C67.15,72.1,67.15,72.54,67.12,72.97z"/>
	<path class="st2" d="M160.87,83.69c-1.11,0.03-2.23,0.1-3.34,0.08c-0.9-0.02-1.36,0.3-1.29,1.25c0.03,0.36,0,0.72,0,1.08
		c0.01,1.77,0.01,1.8-1.79,2c-0.65,0.07-0.74,0.37-0.72,0.95c0.06,1.35,0.05,2.71,0.06,4.06c0.01,0.77-0.09,1.46-1.12,1.45
		c-0.66,0-0.74,0.48-0.74,1c0,0.92,0,1.83-0.01,2.75c-0.02,1.3-0.16,1.39-1.39,0.94c-0.33-0.12-0.69-0.21-0.94-0.5
		c-0.05-0.55-0.14-1.11-0.14-1.66c-0.01-7.99,0.01-15.99-0.04-23.98c-0.01-1.21,0.31-1.93,1.57-2.26c2.01-0.52,3.98-1.15,6.01-1.6
		c0.96-0.21,1.89-0.61,2.83-0.92c0.68-0.22,1.08-0.06,1.07,0.75C160.89,73.94,160.89,78.81,160.87,83.69z"/>
	<path class="st2" d="M133.26,79.8c0.29,0,0.59-0.01,0.88-0.01c1.38,0.06,1.38,0.06,1.34,1.9c-0.79,0.41-0.58,1.16-0.58,1.81
		c-0.01,10.04,0,20.08-0.02,30.12c0,0.52,0.31,1.24-0.55,1.49c-0.57-0.45-0.37-1.05-0.37-1.58c-0.01-8.36-0.01-16.72-0.01-25.08
		c0-1.79,0-1.79-1.79-1.79c-1.48,0-2.96,0.01-4.44,0c-0.7-0.01-1.3,0.04-1.27,0.98c0.02,0.54-0.34,0.78-0.83,0.83
		c-0.16,0.02-0.32,0.03-0.48,0.03c-2.68,0.14-2.74,0.14-2.68-2.49c0.03-1.22-0.37-1.61-1.58-1.57c-2,0.07-4-0.02-5.99-0.05
		c-0.01-2.55,0-5.1-0.04-7.65c-0.01-0.91,0.32-1.31,1.26-1.29c1.87,0.04,3.75,0.03,5.62,0.03c0.37,0.13,0.73,0.15,1.09-0.05
		c1.23,0.01,2.46,0.02,3.69,0.02c3.26,0.01,3.28,0.01,3.07,3.32c-0.05,0.78,0.27,0.99,0.95,0.98
		C131.43,79.77,132.35,79.79,133.26,79.8z"/>
	<path class="st2" d="M49.04,81.77c-4.76,0.17-9.53,0.13-14.29,0.02c-0.01-1.32-0.01-2.64-0.04-3.96c-0.02-0.78,0.26-1.21,1.1-1.2
		c0.87,0.01,1.75-0.05,2.63-0.05c0.91,0,1.37-0.3,1.34-1.34c-0.07-2.52-0.02-5.04-0.03-7.56c0-0.72,0.28-1.25,0.67-1.91
		c1.08-1.8,2.62-1.75,4.39-1.93c2.14-0.22,2.98,1.2,4.12,2.36c0.14,0.14,0.16,0.45,0.16,0.68C49.08,71.85,49.06,76.81,49.04,81.77z"
		/>
	<path class="st2" d="M177.22,75.74c-1.33-0.06-1.76,0.62-1.57,1.86c0.05,0.35-0.01,0.72,0.01,1.08c0.06,0.86-0.31,1.32-1.19,1.21
		c-1.15-0.14-1.52,0.41-1.41,1.46c0.03,0.28,0,0.56,0,0.84c0,1.69,0,1.72-1.69,2.01c-0.81,0.14-0.76,0.7-0.76,1.25
		c-0.01,3.36-0.01,6.72-0.01,10.08c0,6.04,0.01,12.08,0,18.12c0,0.41,0.15,0.87-0.26,1.31c-0.29-0.48-0.18-0.95-0.19-1.39
		c-0.01-5.84-0.01-11.68,0-17.52c0-0.88-0.04-1.59-1.23-1.55c-0.67,0.03-0.66-0.57-0.66-1.06c-0.01-1.32-0.04-2.64,0.01-3.96
		c0.03-0.93-0.26-1.48-1.29-1.38c-0.88,0.08-1.27-0.32-1.18-1.19c0-0.04,0-0.08,0-0.12c-0.06-2.85-0.06-2.85-2.89-3.06
		c-0.02-3.26-0.02-6.53-0.06-9.79c-0.01-0.77,0.34-1.07,1.08-1.06c2.39,0.02,4.78,0,7.17,0.01c0.35,0,0.85-0.04,0.91,0.38
		c0.16,1.2,1.01,1,1.79,1.01c0.68,0.01,1.36,0.03,2.03-0.01C176.92,74.21,177.46,74.6,177.22,75.74z"/>
	<path class="st3" d="M37.34,56.2c0.48,6.4,0.3,12.85,0.35,19.29c-0.12,0-0.23,0-0.35,0C37.34,69.06,37.34,62.63,37.34,56.2z"/>
	<path class="st2" d="M60.73,66.82c0.25,0.04,0.5,0.08,0.74,0.11c0.07,0.94,0.39,1.74,1.44,1.89c1.02,0.15,1.62-0.45,1.97-1.34
		c0.12-0.3,0.21-0.67,0.63-0.53c0.46,0.15,0.34,0.55,0.28,0.9c-0.16,0.82-0.79,1.35-1.24,1.99c0,0,0.03-0.01,0.03-0.01
		c-1.06,0.18-2.11,0.29-3.12-0.22c0,0-0.04-0.03-0.04-0.04C61,68.7,59.91,68,60.73,66.82z"/>
	<path class="st2" d="M73.21,68.19c0.32,0.04,0.63,0.06,0.92-0.12c0.28,0.69,0.74,1.08,1.55,1.02c0.33-0.03,0.81-0.06,0.81,0.46
		c0,0.55-0.47,0.58-0.87,0.57c-0.4-0.01-0.8-0.1-1.46-0.18c1.14,0.55,2.28,0.3,3.01,1.31c0.25,0.35,1.26,0.44,1.66-0.29
		c0.3-0.54,0.78-0.42,1.2-0.58c1.1-0.41,2.32,0.16,3.34-0.41c0.93-0.51,1.23,0.11,1.56,0.69c0.14,0.25,0.11,0.62,0.11,0.94
		c0.01,6.42,0.01,12.85,0,19.27c0,0.35-0.07,0.71-0.11,1.06c-2.29-0.85-4.32-2.23-6.49-3.32c-1.62-0.82-3.15-1.84-5.19-2.58
		c-0.07,9.82,0.02,19.41-0.06,29.21c-0.96-0.54-0.72-1.13-0.72-1.6c-0.02-12.03-0.01-24.06-0.02-36.09c0-0.84,0.26-1.78-0.88-2.22
		c-0.34-0.13-0.28-0.64-0.25-0.99c0.07-0.91-0.38-1.19-1.22-1.16c-0.75,0.02-1.51-0.06-2.27-0.09c0-0.67,0-1.35,0.02-2.02
		c0.01-0.32,0.03-0.73,0.41-0.77c1.19-0.12,1.06-0.97,1.04-1.76c-0.02-0.84,0.34-1.2,1.2-1.22c1.35-0.03,2,0.89,2.7,1.79
		c0.05,0.09,0.1,0.18,0.02,0.03c0.14,0.08,0.05,0.03-0.03-0.02C73.19,68.81,73.2,68.5,73.21,68.19z"/>
	<path class="st2" d="M102.05,72.79c0.42,0.08,0.83,0.16,1.47,0.28c0,1.2,0,2.44,0,3.68c-1.64,0.01-3.28,0.03-4.91,0.02
		c-0.67,0-1.18,0.11-1.23,0.93c-0.04,0.72-0.61,0.77-1.15,0.73c-0.88-0.06-1.25,0.31-1.19,1.19c0.03,0.51-0.04,1.01-0.71,1.01
		c-0.9,0-1.01,0.53-1.01,1.26c0.02,2.48,0.01,4.95,0.01,7.43c0,7.99,0.01,15.98,0,23.98c0,0.56,0.12,1.17-0.35,1.7
		c-0.45-0.47-0.28-0.97-0.28-1.42c-0.01-5.31-0.03-10.63,0.01-15.94c0.01-0.98-0.33-1.56-1.18-1.98c-1.39-0.69-2.76-1.45-4.13-2.19
		c-0.37-0.2-0.85-0.3-0.98-0.8c-0.03-0.44-0.09-0.87-0.09-1.31c0-6.72,0-13.43,0-20.15c0-1.08-0.01-2.16,0-3.24
		c0.01-0.48-0.01-1.04,0.66-1.07c0.71-0.03,0.67,0.55,0.69,1.02c0.02,0.44,0.01,0.88,0.03,1.32c0.02,0.46,0.09,0.93,0.68,0.94
		c0.65,0.01,0.76-0.48,0.78-0.99c0.02-0.44,0.02-0.88,0.02-1.32c-0.01-0.67,0.24-1.04,0.98-1.05c0.74-0.01,1.12,0.26,1.09,1.05
		c-0.02,0.56,0.02,1.12,0.07,1.67c0.03,0.34,0.24,0.59,0.62,0.63c0.36,0.04,0.64-0.12,0.75-0.46c0.09-0.26,0.1-0.55,0.15-0.82
		c0,0,0.05-0.06,0.05-0.06c0.67,0.05,1.6-0.49,1.77,0.75c0.06,0.43,0.24,0.79,0.73,0.79c0.54-0.01,0.74-0.38,0.78-0.87
		c0.03-0.41,0.31-0.83,0.65-0.65c0.84,0.44,1.1,1.74,2.37,1.61c0.05-0.01,0.15,0.33,0.22,0.52c0.03,0.07,0.01,0.16,0.02,0.24
		c0.15,1.66,0.15,1.66,1.78,1.61C101.49,72.81,101.77,72.8,102.05,72.79z"/>
	<path class="st0" d="M92.84,68.89c-0.05,0.27-0.07,0.56-0.15,0.82c-0.11,0.34-0.38,0.5-0.75,0.46c-0.38-0.04-0.58-0.29-0.62-0.63
		c-0.06-0.56-0.09-1.12-0.07-1.67c0.03-0.78-0.35-1.05-1.09-1.05c-0.74,0.01-0.99,0.37-0.98,1.05c0.01,0.44,0.01,0.88-0.02,1.32
		c-0.03,0.51-0.13,1-0.78,0.99c-0.6-0.01-0.66-0.48-0.68-0.94c-0.02-0.44-0.01-0.88-0.03-1.32c-0.03-0.48,0.02-1.05-0.69-1.02
		c-0.67,0.03-0.66,0.6-0.66,1.07c-0.01,1.08,0,2.16,0,3.24c0,6.72,0,13.43,0,20.15c0,0.44,0.06,0.87,0.09,1.31
		c-0.56-0.12-1.04-0.38-1.48-0.73c0.04-0.35,0.11-0.71,0.11-1.06c0.01-6.42,0.01-12.85,0-19.27c0-0.32,0.03-0.68-0.11-0.94
		c-0.33-0.58-0.64-1.2-1.56-0.69c-1.02,0.56-2.24,0-3.34,0.41c-0.42,0.16-0.9,0.04-1.2,0.58c-0.4,0.72-1.41,0.63-1.66,0.29
		c-0.73-1.01-1.87-0.76-3.01-1.31c0.66,0.09,1.06,0.17,1.46,0.18c0.4,0.01,0.87-0.03,0.87-0.57c0-0.52-0.48-0.49-0.81-0.46
		c-0.81,0.07-1.27-0.32-1.55-1.02c-0.37-2.46-0.16-4.94-0.17-7.41c0-0.76,0.61-0.72,1.13-0.72c1.92,0,3.84-0.02,5.76,0.01
		c0.71,0.01,1.26-0.12,1.49-0.88c0.04-0.15,0.2-0.26,0.24-0.41c0.81-2.9,2.96-3.25,5.51-2.97c0.76,0.08,1.19,0.35,1.63,0.96
		c1.6,2.21,2.18,4.63,1.91,7.33c-0.12,1.23,0.01,2.48-0.03,3.72C91.58,68.59,91.85,69.09,92.84,68.89z M88.9,68.45
		c0-0.26,0.02-0.42,0-0.57c-0.06-0.36,0.1-0.92-0.49-0.89c-0.54,0.03-0.42,0.57-0.47,0.94c-0.02,0.16-0.03,0.32,0,0.47
		c0.1,0.49-0.25,1.36,0.51,1.34C89.17,69.71,88.77,68.84,88.9,68.45z"/>
	<path class="st0" d="M121.73,75.5c-1.87-0.01-3.75,0.01-5.62-0.03c-0.93-0.02-1.27,0.37-1.26,1.29c0.04,2.55,0.03,5.1,0.04,7.65
		c-0.11,0-0.23,0-0.34,0.01c-0.02-5.31-0.09-10.62,0-15.93c0.02-1.31-0.94-1.88-1.36-2.86c-0.4,1.15-0.22,2.31-0.29,3.44
		c-0.03,0.52-0.05,1.1-0.78,1.13c-0.76,0.03-0.8-0.6-0.81-1.09c-0.03-1.19,0.03-2.39,0.05-3.59c-0.01-3.56-0.01-7.11-0.02-10.67
		c0-0.8-0.11-1.46,1.08-1.72c0.86-0.19,1.36-1.32,2.24-1.84c1.28-0.76,2.45-0.72,3.65,0.1c0.97,0.66,1.73,1.64,2.96,1.93
		c0.65,0.15,0.47,0.77,0.47,1.21c0.02,3.32,0.02,6.64,0.02,9.95C121.76,68.14,121.74,71.82,121.73,75.5z M112.62,67.68
		c0,0-0.01,0-0.01,0c0-0.56,0.02-1.11-0.01-1.67c-0.02-0.3-0.18-0.53-0.54-0.51c-0.27,0.02-0.46,0.18-0.48,0.44
		c-0.09,1.11-0.13,2.22,0.03,3.32c0.04,0.28,0.18,0.55,0.53,0.54c0.35-0.02,0.46-0.29,0.47-0.58
		C112.64,68.71,112.62,68.2,112.62,67.68z"/>
	<path class="st0" d="M73.21,68.19c-0.01,0.31-0.02,0.62-0.03,0.93c0,0,0.01-0.01,0.01-0.01c-0.7-0.9-1.35-1.82-2.7-1.79
		c-0.87,0.02-1.22,0.38-1.2,1.22c0.02,0.79,0.14,1.64-1.04,1.76c-0.38,0.04-0.4,0.45-0.41,0.77c-0.01,0.67-0.01,1.35-0.02,2.02
		c-0.23-0.04-0.47-0.07-0.7-0.11c0.03-0.44,0.03-0.88,0.09-1.31c0.11-0.76-0.09-1.35-0.95-1.23c-0.73,0.1-1.01-0.81-1.72-0.59
		c0.46-0.64,1.08-1.17,1.24-1.99c0.07-0.35,0.18-0.75-0.28-0.9c-0.42-0.14-0.51,0.23-0.63,0.53c-0.35,0.89-0.95,1.49-1.97,1.34
		c-1.05-0.15-1.37-0.94-1.44-1.89c0.05-0.03,0.09-0.03,0.14-0.01c0.22,1.01,0.76,1.7,1.88,1.52c0.77-0.12,1.09-0.68,0.94-1.52
		c-0.79-0.17-1.55-0.13-2.3-0.1c-0.01-6.23-0.01-12.46-0.04-18.69c0-0.98,0.36-1.33,1.32-1.02c0.26,0.08,0.55,0.12,0.83,0.1
		c0.97-0.09,1.43,0.29,1.32,1.29c-0.1,0.84,0.3,1.17,1.12,1.1c0.87-0.08,1.5,0.03,1.29,1.22c-0.16,0.88,0.36,1.35,1.28,1.26
		c0.99-0.1,1.42,0.35,1.3,1.33c-0.12,0.99,0.31,1.41,1.29,1.3c0.98-0.12,1.21,0.4,1.21,1.28c-0.03,3.59-0.01,7.19,0,10.78
		C73.05,67.25,73.02,67.73,73.21,68.19z M69.2,68.58c-0.05-0.51,0.1-1.16-0.67-1.18c-0.7-0.02-0.64,0.57-0.64,1.04
		c0.01,0.58-0.05,1.36,0.73,1.36C69.3,69.8,69.12,69.04,69.2,68.58z"/>
	<path class="st2" d="M111.36,65.5c-0.02,1.2-0.08,2.39-0.05,3.59c0.01,0.49,0.05,1.12,0.81,1.09c0.73-0.03,0.75-0.6,0.78-1.13
		c0.07-1.13-0.11-2.28,0.29-3.44c0.43,0.98,1.39,1.56,1.36,2.86c-0.09,5.31-0.01,10.62,0,15.93c-2.21,0.18-2.22,0.18-2.22,2.49
		c0,8.79,0.01,17.59-0.03,26.38c0,0.62,0.45,1.76-0.56,1.77c-1.15,0-0.62-1.19-0.62-1.82c-0.04-11.59-0.03-23.18-0.03-34.78
		c0-1.66,0-1.65-1.65-1.68c-1.48-0.03-2.96,0.11-4.43-0.1c0-2.22,0-4.45,0-6.75c1.53,0.23,2.99,0.88,3.92-0.76l0.05-0.06
		c0.28-0.3,0.39-0.67,0.49-1.05c0.13-0.48,0.16-0.95-0.25-1.3c-0.47-0.39-0.77,0.11-1.14,0.28c-0.07-0.08-0.14-0.15-0.2-0.23
		c-0.18-0.94,0.18-1.37,1.17-1.37c0.38,0,0.77-0.05,1.15,0.02C110.58,65.47,110.97,65.49,111.36,65.5z"/>
	<path class="st0" d="M110.2,65.45c-0.38-0.07-0.77-0.02-1.15-0.02c-0.98,0-1.34,0.43-1.17,1.37c-0.32,0.01-0.63,0-0.95,0.02
		c-0.39,0.02-0.83-0.01-0.89,0.56c-0.04,0.49,0.13,0.87,0.6,1.05c0.46,0.18,0.89,0.07,1.12-0.38c0.16-0.31,0.22-0.67,0.32-1.01
		c0.36-0.17,0.67-0.67,1.14-0.28c0.41,0.34,0.38,0.82,0.25,1.3c-0.11,0.38-0.21,0.75-0.49,1.05c0.04-0.15,0.1-0.3,0.13-0.46
		c0.13-0.56,0.49-1.33-0.16-1.61c-0.8-0.34-0.68,0.62-0.93,1.04c-0.26,0.45-0.61,0.71-1.15,0.7c-0.57,0-0.84-0.32-1.05-0.8
		c-0.13-0.31-0.02-0.74-0.43-0.92c-0.83,1.23-0.19,2.67,1.25,2.9c0.92,0.15,1.6-0.32,2.29-0.8c-0.93,1.64-2.38,0.99-3.92,0.76
		c0,2.31,0,4.53,0,6.75c-0.29-0.02-0.59-0.03-0.88-0.05c-0.01-6.39-0.01-12.78-0.02-19.17c0-0.61,0.05-1.15,0.86-1.13
		c0.72,0.02,0.93-0.47,1.07-1.06c0.31-1.27,0.63-2.54,1.2-3.82c0.34,1.28,0.68,2.56,1.01,3.84c0.13,0.52,0.22,1.06,0.93,1.03
		c0.91-0.04,1.01,0.51,1.01,1.24C110.18,60.18,110.19,62.82,110.2,65.45z"/>
	<path class="st0" d="M133.26,79.8c-0.91-0.01-1.82-0.03-2.74-0.03c-0.68,0-1-0.21-0.95-0.98c0.21-3.31,0.19-3.31-3.07-3.32
		c-1.23,0-2.46-0.01-3.69-0.02c-0.01-4.79,0-9.58-0.04-14.37c-0.01-1.13,1.15-1.54,1.37-2.54c0.37-1.74,1.8-1.37,3.01-1.38
		c0.76-0.01,1.52,0.04,2.28-0.01c1.05-0.08,1.86,0.06,2.39,1.2c0.68,1.47,1.51,2.76,1.46,4.57
		C133.13,68.54,133.25,74.17,133.26,79.8z"/>
	<path class="st0" d="M102.05,72.79c-0.28,0.01-0.56,0.02-0.83,0.03c-1.63,0.05-1.63,0.05-1.78-1.61c-0.01-0.08,0.01-0.16-0.02-0.24
		c-0.06-0.18-0.16-0.52-0.22-0.52c-1.27,0.14-1.54-1.17-2.37-1.61c-0.34-0.18-0.62,0.24-0.65,0.65c-0.04,0.49-0.24,0.87-0.78,0.87
		c-0.49,0.01-0.67-0.36-0.73-0.79c-0.17-1.24-1.09-0.7-1.77-0.75c0-1.56,0.05-3.12,0-4.68c-0.03-0.93,0.28-1.34,1.24-1.24
		c1.12,0.12,2.12,0.06,1.89-1.54c-0.07-0.52,0.32-0.68,0.77-0.68c1.4,0,2.8,0.03,4.2-0.02c0.91-0.03,1.03,0.45,1.03,1.2
		C102.01,65.52,102.03,69.15,102.05,72.79z M99.35,69.37c-0.03-0.54-0.42-0.52-0.77-0.5c-0.35,0.02-0.77,0.03-0.8,0.5
		c-0.03,0.47,0.35,0.56,0.72,0.57C98.92,69.95,99.29,69.87,99.35,69.37z M95.4,70.04c0.34-0.04,0.44-0.3,0.45-0.58
		c0.01-0.3-0.1-0.56-0.44-0.57c-0.37-0.01-0.44,0.27-0.44,0.56C94.96,69.73,95.06,69.98,95.4,70.04z"/>
	<path class="st2" d="M62.15,66.83c0.75-0.03,1.5-0.07,2.3,0.1c0.15,0.84-0.17,1.4-0.94,1.52c-1.12,0.18-1.66-0.51-1.88-1.52
		C61.79,66.9,61.97,66.87,62.15,66.83z"/>
	<path class="st0" d="M61.46,69.61c1.01,0.5,2.06,0.4,3.12,0.22C63.49,70.42,62.44,70.53,61.46,69.61z"/>
	<path class="st0" d="M73.18,69.12c0.08,0.05,0.17,0.1,0.03,0.02c0.08,0.15,0.03,0.06-0.02-0.03C73.2,69.11,73.18,69.12,73.18,69.12
		z"/>
	<path class="st2" d="M88.9,68.45c-0.13,0.39,0.27,1.26-0.45,1.29c-0.76,0.03-0.4-0.85-0.51-1.34c-0.03-0.15-0.02-0.32,0-0.47
		c0.04-0.37-0.07-0.91,0.47-0.94c0.59-0.03,0.43,0.53,0.49,0.89C88.92,68.03,88.9,68.19,88.9,68.45z"/>
	<path class="st2" d="M112.62,67.68c0,0.52,0.02,1.03-0.01,1.55c-0.01,0.29-0.12,0.57-0.47,0.58c-0.35,0.02-0.49-0.26-0.53-0.54
		c-0.16-1.1-0.12-2.22-0.03-3.32c0.02-0.26,0.2-0.42,0.48-0.44c0.36-0.02,0.52,0.21,0.54,0.51c0.03,0.55,0.01,1.11,0.01,1.67
		C112.61,67.68,112.62,67.68,112.62,67.68z"/>
	<path class="st2" d="M69.2,68.58c-0.07,0.46,0.11,1.22-0.57,1.22c-0.79,0-0.73-0.78-0.73-1.36c-0.01-0.47-0.06-1.06,0.64-1.04
		C69.29,67.42,69.15,68.07,69.2,68.58z"/>
	<path class="st2" d="M108.93,69.16c-0.69,0.48-1.36,0.96-2.29,0.8c-1.44-0.24-2.08-1.68-1.25-2.9c0.41,0.18,0.3,0.61,0.43,0.92
		c0.21,0.48,0.48,0.8,1.05,0.8c0.54,0,0.89-0.25,1.15-0.7c0.25-0.42,0.12-1.38,0.93-1.04c0.65,0.27,0.28,1.04,0.16,1.61
		c-0.04,0.15-0.09,0.31-0.13,0.46C108.98,69.1,108.93,69.16,108.93,69.16z"/>
	<path class="st2" d="M108.08,67.03c-0.1,0.34-0.16,0.7-0.32,1.01c-0.23,0.46-0.65,0.56-1.12,0.38c-0.47-0.18-0.64-0.56-0.6-1.05
		c0.05-0.56,0.49-0.54,0.89-0.56c0.32-0.02,0.63-0.01,0.95-0.02C107.95,66.88,108.02,66.95,108.08,67.03z"/>
	<path class="st2" d="M99.35,69.37c-0.05,0.51-0.43,0.59-0.85,0.58c-0.38-0.01-0.75-0.11-0.72-0.57c0.03-0.47,0.45-0.48,0.8-0.5
		C98.93,68.84,99.31,68.83,99.35,69.37z"/>
	<path class="st2" d="M95.4,70.04c-0.34-0.06-0.43-0.31-0.43-0.6c0-0.29,0.07-0.57,0.44-0.56c0.35,0.01,0.45,0.28,0.44,0.57
		C95.84,69.74,95.74,69.99,95.4,70.04z"/>
</g>
</svg>
