<?xml version="1.0" standalone="no"?><svg xmlns="http://www.w3.org/2000/svg" viewBox="0 0 1440 320"><path fill="#00cba9" fill-opacity="1" d="M0,224L0,160L110.8,160L110.8,288L221.5,288L221.5,224L332.3,224L332.3,64L443.1,64L443.1,64L553.8,64L553.8,96L664.6,96L664.6,160L775.4,160L775.4,0L886.2,0L886.2,288L996.9,288L996.9,256L1107.7,256L1107.7,192L1218.5,192L1218.5,160L1329.2,160L1329.2,64L1440,64L1440,320L1329.2,320L1329.2,320L1218.5,320L1218.5,320L1107.7,320L1107.7,320L996.9,320L996.9,320L886.2,320L886.2,320L775.4,320L775.4,320L664.6,320L664.6,320L553.8,320L553.8,320L443.1,320L443.1,320L332.3,320L332.3,320L221.5,320L221.5,320L110.8,320L110.8,320L0,320L0,320Z"></path></svg>